HIERARCHY
ROOT Hips
{
	OFFSET 0.00000 0.00000 0.00000
	CHANNELS 6 Xposition Yposition Zposition Zrotation Yrotation Xrotation 
	JOINT RightUpLegDummy
	{
		OFFSET 0 0 0
		CHANNELS 3 Zrotation Yrotation Xrotation
		JOINT RightUpLeg
		{
			OFFSET -3.52197 -3.41223 0.04002
			CHANNELS 3 Zrotation Yrotation Xrotation
			JOINT RightLeg
			{
				OFFSET 0.00006 -17.42390 1.60435
				CHANNELS 3 Zrotation Yrotation Xrotation
				JOINT RightFoot
				{
					OFFSET 0.06154 -16.50078 -1.63900
					CHANNELS 3 Zrotation Yrotation Xrotation
					JOINT RightToes
					{
						OFFSET 0.00298 -1.73825 3.34613
						CHANNELS 3 Zrotation Yrotation Xrotation
						End Site
						{
							OFFSET 0.00480 -0.05416 3.85043
						}
					}
				}
			}
		}
	}
	JOINT SpineDummy
	{
		OFFSET 0 0 0
		CHANNELS 3 Zrotation Yrotation Xrotation
		JOINT Spine
		{
			OFFSET 0.00000 4.68130 0.00000
			CHANNELS 3 Zrotation Yrotation Xrotation
			JOINT Spine1
			{
				OFFSET -0.00000 10.10138 0.05002
				CHANNELS 3 Zrotation Yrotation Xrotation
				JOINT HEadDummy
				{
					OFFSET 0 0 0
					CHANNELS 3 Zrotation Yrotation Xrotation
					JOINT Head
					{
						OFFSET -0.00000 3.43865 0.00438
						CHANNELS 3 Zrotation Yrotation Xrotation
						End Site
						{
							OFFSET -0.11417 5.02924 0.98962
						}
					}
				}
				JOINT LeftShoulder1Dummy
				{
					OFFSET 0 0 0
					CHANNELS 3 Zrotation Yrotation Xrotation
					JOINT LeftShoulder1
					{
						OFFSET 3.53937 -0.14262 -0.08662
						CHANNELS 3 Zrotation Yrotation Xrotation
						JOINT LeftArm
						{
							OFFSET 4.04833 -0.00133 0.12681
							CHANNELS 3 Zrotation Yrotation Xrotation
							JOINT LeftForeArm
							{
								OFFSET 10.33880 -0.01036 -0.55515
								CHANNELS 3 Zrotation Yrotation Xrotation
								JOINT LeftHand
								{
									OFFSET 8.69677 0.07543 0.40060
									CHANNELS 3 Zrotation Yrotation Xrotation
									End Site
									{
										OFFSET 5.28377 -0.21905 0.59205
									}
								}
							}
						}
					}
				}
				JOINT RightShoulderDummy
				{
					OFFSET 0 0 0
					CHANNELS 3 Zrotation Yrotation Xrotation
					JOINT RightShoulder
					{
						OFFSET -3.53937 -0.14262 -0.08660
						CHANNELS 3 Zrotation Yrotation Xrotation
						JOINT RightArm
						{
							OFFSET -4.04833 -0.00133 0.12683
							CHANNELS 3 Zrotation Yrotation Xrotation
							JOINT RightForeArm
							{
								OFFSET -10.37987 -0.01039 -0.55511
								CHANNELS 3 Zrotation Yrotation Xrotation
								JOINT RightHand
								{
									OFFSET -8.67398 0.07538 0.40058
									CHANNELS 3 Zrotation Yrotation Xrotation
									End Site
									{
										OFFSET -5.24810 -0.21916 0.59204
									}
								}
							}
						}
					}
				}
			}
		}
	}
	JOINT LeftUpLegDummy
	{
		OFFSET 0 0 0
		CHANNELS 3 Zrotation Yrotation Xrotation
		JOINT LeftUpLeg
		{
			OFFSET 3.52197 -3.41223 0.04002
			CHANNELS 3 Zrotation Yrotation Xrotation
			JOINT LeftLeg
			{
				OFFSET -0.00012 -17.42399 1.60337
				CHANNELS 3 Zrotation Yrotation Xrotation
				JOINT LeftFoot
				{
					OFFSET -0.09972 -16.50070 -1.63802
					CHANNELS 3 Zrotation Yrotation Xrotation
					JOINT LeftToes
					{
						OFFSET -0.01575 -1.73823 3.34611
						CHANNELS 3 Zrotation Yrotation Xrotation
						End Site
						{
							OFFSET 0.03150 -0.01868 3.85031
						}
					}
				}
			}
		}
	}
}
MOTION
Frames: 11
Frame Time: 0.033333
6.3903 34.6580 31.0997 170.9170 -4.6841 -172.6270 0.0000 0.0000 0.0000 -34.7925 -12.2789 -25.0447 -4.5806 -4.7214 36.9426 40.8504 -2.4504 -4.8053 0.0000 0.0000 -0.0000 0.0000 0.0000 0.0000 7.5395 -2.9661 24.0352 -14.7245 2.4078 9.6180 0.0000 0.0000 0.0000 -0.7506 7.9696 -28.4928 0.0000 0.0000 0.0000 -19.5087 -0.2490 0.9764 -53.0805 -7.7028 25.6694 -6.3599 -85.9321 6.2529 20.3716 -2.6612 -1.3985 0.0000 0.0000 0.0000 8.0884 0.6228 0.6427 30.8527 27.7723 -21.7824 3.6072 74.6843 -7.1129 -20.4065 5.3680 -1.8655 0.0000 0.0000 0.0000 20.9913 -3.4853 -27.1163 7.2347 7.7688 35.8990 -18.1647 1.9176 0.7623 -0.0000 0.0000 -0.0000
5.8746 35.0776 30.9847 171.6050 -5.1529 -173.2280 0.0000 0.0000 0.0000 -34.4038 -13.6446 -21.8230 -4.2868 -5.2378 32.1905 39.9368 -3.5130 -1.7055 0.0000 0.0000 -0.0000 0.0000 0.0000 0.0000 4.6406 -2.8338 22.7938 -10.4134 0.7482 10.7905 0.0000 0.0000 0.0000 -1.7709 8.8380 -28.2522 0.0000 0.0000 0.0000 -18.7222 0.2212 0.8302 -54.3418 -10.3296 27.5164 -6.7503 -85.3213 4.4937 20.4125 -1.5631 -1.2155 0.0000 0.0000 0.0000 13.3013 1.0211 0.9168 38.8528 19.8776 -13.3666 5.1479 78.1457 -8.2584 -19.6280 5.0053 -1.7323 0.0000 0.0000 0.0000 19.2844 -1.7069 -25.5931 0.7958 0.4858 35.1567 -21.9512 1.1352 -5.6920 -0.0000 0.0000 -0.0000
5.1718 35.4380 30.8798 172.4900 -5.1342 -173.7020 0.0000 0.0000 0.0000 -34.1806 -14.1024 -18.6764 -4.3171 -6.4619 26.8803 39.5838 -4.8013 1.9769 0.0000 0.0000 -0.0000 0.0000 0.0000 0.0000 1.8851 -2.8361 21.4498 -6.8577 -0.8441 11.4582 0.0000 0.0000 0.0000 -2.4266 10.0197 -27.3947 0.0000 0.0000 0.0000 -18.1735 0.6553 0.7060 -55.3801 -12.6916 29.9655 -6.2205 -84.6349 3.2749 20.1905 -0.9541 -1.0994 0.0000 0.0000 0.0000 17.2970 1.0707 1.0963 45.2482 11.8575 -7.0552 7.6771 81.7528 -7.0637 -17.8755 4.4921 -1.4961 0.0000 0.0000 0.0000 17.3372 0.8421 -24.3085 -2.6810 -3.4629 35.9554 -23.6291 0.3397 -10.0364 -0.0000 0.0000 -0.0000
4.2780 35.7136 30.8564 173.4950 -4.4886 -173.9080 0.0000 0.0000 0.0000 -34.2237 -12.6068 -16.1769 -4.6548 -8.9600 21.3564 38.8076 -6.2838 6.4622 0.0000 0.0000 -0.0000 0.0000 0.0000 0.0000 -1.1286 -2.9676 20.1365 -3.5923 -2.5247 11.7535 0.0000 0.0000 0.0000 -3.2115 11.5694 -26.8279 0.0000 0.0000 0.0000 -18.0392 1.0276 0.6107 -56.5133 -14.4967 32.4082 -5.0889 -83.9817 3.1970 19.6950 -0.8333 -1.0516 0.0000 0.0000 0.0000 19.4748 1.2980 1.2474 50.4644 4.8128 -2.9754 15.3791 85.4771 -1.3097 -15.5118 3.7882 -1.2009 0.0000 0.0000 0.0000 15.2739 3.8379 -23.9663 -2.2402 -2.8013 38.0176 -23.0169 -0.1104 -12.2479 -0.0000 0.0000 -0.0000
3.1759 35.9139 30.8977 174.5100 -3.0558 -174.3490 0.0000 0.0000 0.0000 -33.9013 -12.1424 -14.1277 -4.9544 -10.8998 15.0323 36.5244 -8.0219 12.8468 0.0000 0.0000 -0.0000 0.0000 0.0000 0.0000 -3.9919 -3.0924 18.9668 -0.7488 -3.9899 12.4802 0.0000 0.0000 0.0000 -3.9216 13.3757 -26.9343 0.0000 0.0000 0.0000 -18.0617 0.9394 0.6331 -57.8521 -16.3708 34.8131 -4.1310 -82.9615 2.8961 19.8891 -0.7896 -1.0549 0.0000 0.0000 0.0000 19.7644 1.6144 1.3431 54.4665 -0.3639 0.6683 111.3198 88.6272 92.6587 -13.1802 2.9391 -0.9234 0.0000 0.0000 0.0000 13.4262 6.1889 -23.5843 0.4927 0.0753 39.9434 -21.3613 -0.3522 -13.6438 -0.0000 0.0000 -0.0000
1.9967 36.0687 30.9563 175.4660 -0.9346 -175.2250 0.0000 0.0000 0.0000 -31.5522 -18.0725 -12.5857 -5.2970 -8.5078 7.8487 32.2660 -9.5036 21.0827 0.0000 0.0000 -0.0000 0.0000 0.0000 0.0000 -6.6802 -2.8419 17.7866 1.6981 -4.8969 13.9429 0.0000 0.0000 0.0000 -4.2388 15.2311 -26.9212 0.0000 0.0000 0.0000 -18.1497 0.2090 0.8160 -59.1113 -18.9936 37.2094 -3.5283 -81.2142 1.6733 20.2589 -0.2636 -0.9862 0.0000 0.0000 0.0000 18.9700 1.5508 1.2898 56.2816 -2.2625 5.4725 166.5658 84.5483 147.5263 -10.4466 2.2497 -0.6696 0.0000 0.0000 0.0000 12.1689 7.9010 -22.1928 2.2474 1.7427 40.6620 -19.9387 -0.6307 -15.4550 -0.0000 0.0000 -0.0000
0.9370 36.2170 31.0741 176.2820 1.2740 -176.2650 0.0000 0.0000 0.0000 -29.8231 -21.7815 -11.4893 -5.1066 -9.6112 3.0683 26.7585 -9.5702 27.8123 0.0000 0.0000 -0.0000 0.0000 0.0000 0.0000 -9.1979 -2.1971 16.8006 3.7788 -5.2702 15.3286 0.0000 0.0000 0.0000 -4.2229 16.7406 -26.1849 0.0000 0.0000 0.0000 -18.1962 -0.8429 1.0776 -59.9619 -22.0019 39.0982 -2.9825 -79.0705 0.4970 19.5431 0.8641 -0.7686 0.0000 0.0000 0.0000 17.9880 1.2230 1.1628 56.1288 -0.4908 10.7086 171.6850 81.3010 152.9060 -7.4072 1.7146 -0.4379 0.0000 0.0000 0.0000 11.3850 9.0935 -20.2810 2.1404 1.6452 40.3776 -19.2453 -0.9888 -17.7973 -0.0000 0.0000 -0.0000
0.0762 36.4688 31.3064 176.8370 2.9751 -176.9950 0.0000 0.0000 0.0000 -28.6146 -20.8185 -11.2825 -5.1061 -12.1908 2.8797 23.4569 -8.5134 28.5469 0.0000 0.0000 -0.0000 0.0000 0.0000 0.0000 -10.6412 -1.5164 16.4607 4.7700 -5.0978 15.6957 0.0000 0.0000 0.0000 -4.0711 17.2018 -25.1601 0.0000 0.0000 0.0000 -17.7785 -1.6546 1.2587 -60.3976 -24.3374 39.9957 -2.6574 -77.5485 -0.1059 18.4491 1.8548 -0.5699 0.0000 0.0000 0.0000 17.1543 1.1146 1.1004 55.7685 3.3768 14.7529 172.5638 79.4020 151.2234 -6.2225 0.7999 -0.3216 0.0000 0.0000 0.0000 10.4324 9.0620 -18.8839 2.7614 2.3291 39.5103 -18.5728 -1.1346 -18.9669 -0.0000 0.0000 -0.0000
-0.5594 36.9336 31.5836 177.1930 3.7931 -176.9440 0.0000 0.0000 0.0000 -27.0749 -17.4646 -11.9485 -5.0014 -11.1773 6.3157 24.9953 -7.6064 22.5571 0.0000 0.0000 -0.0000 0.0000 0.0000 0.0000 -10.4262 -1.0497 16.5598 4.2390 -4.3566 14.9152 0.0000 0.0000 0.0000 -3.8334 16.1509 -24.2765 0.0000 0.0000 0.0000 -16.8768 -1.8637 1.2656 -60.5482 -25.0825 39.7363 -3.0519 -77.7039 -1.2469 19.3579 1.8672 -0.6002 0.0000 0.0000 0.0000 16.3884 1.2920 1.1090 56.0960 7.3475 17.4101 172.2072 78.4270 145.8728 -6.6676 -0.2905 -0.2941 0.0000 0.0000 0.0000 9.2403 7.7594 -18.2261 5.2919 5.2674 37.4657 -16.9921 -0.8026 -17.3636 -0.0000 0.0000 -0.0000
-0.9492 37.5803 31.8013 177.4350 3.1346 -175.7620 0.0000 0.0000 0.0000 -25.4791 -13.1231 -12.5729 -3.3379 -7.2556 10.9106 29.2573 -6.5192 13.4905 0.0000 0.0000 -0.0000 0.0000 0.0000 0.0000 -9.3108 -0.8614 16.4176 3.0830 -3.4945 13.2783 0.0000 0.0000 0.0000 -3.2317 13.7412 -23.3774 0.0000 0.0000 0.0000 -16.1519 -1.6024 1.1696 -60.3657 -23.9910 38.1944 -4.3314 -79.5804 -2.8424 22.6170 0.9678 -0.8723 0.0000 0.0000 0.0000 15.6513 1.4997 1.1232 56.3036 10.7134 19.4706 171.4388 78.6607 142.0319 -5.4511 -0.9221 -0.2175 0.0000 0.0000 0.0000 8.3678 6.7127 -18.1395 6.1861 7.1532 33.3190 -15.2956 -0.2764 -14.0417 -0.0000 0.0000 -0.0000
-1.1806 38.2566 31.9661 177.2770 0.0066 -173.4930 0.0000 0.0000 0.0000 -23.8627 -10.4845 -12.1606 -1.5286 -3.3231 14.4351 32.3333 -5.1592 6.3777 0.0000 0.0000 -0.0000 0.0000 0.0000 0.0000 -8.2694 -1.0662 15.8412 2.6672 -3.2689 11.1543 0.0000 0.0000 0.0000 -1.8597 10.2292 -22.6070 0.0000 0.0000 0.0000 -15.8971 -1.3927 1.1101 -59.7523 -21.7674 35.5176 -6.0445 -82.0355 -2.5568 25.4860 -0.0551 -1.2005 0.0000 0.0000 0.0000 14.9109 1.6066 1.1125 55.5431 13.3476 21.1430 170.4734 79.8873 141.3659 -3.0961 -1.0995 -0.1220 0.0000 0.0000 0.0000 7.5440 7.2992 -18.8651 2.6849 3.4426 27.1323 -16.1073 0.0741 -11.3334 -0.0000 0.0000 -0.0000
